<?xml version="1.0"?>
<svg xmlns="http://www.w3.org/2000/svg" viewBox="0 0 16 16">
    <path style="line-height:normal;text-indent:0;text-align:start;text-decoration-line:none;text-decoration-style:solid;text-decoration-color:#000;text-transform:none;block-progression:tb;isolation:auto;mix-blend-mode:normal" d="M 7.8203125 1.0039062 C 6.9439368 1.0422145 6.1092727 1.3622422 5.4257812 1.9375 C 4.5206584 2.6988076 4 3.8187842 4 5 A 0.50005 0.50005 0 0 0 4.5 5.5 L 6.5 5.5 A 0.50005 0.50005 0 0 0 7 5 C 7 4.7029744 7.1271544 4.4258645 7.3554688 4.234375 A 0.50005 0.50005 0 0 0 7.3574219 4.234375 C 7.5988355 4.0317008 7.8607959 3.9610441 8.1972656 4.0175781 C 8.6193289 4.0906627 9.0121123 4.5716029 8.9980469 5.0332031 C 8.99081 5.2759678 8.9103728 5.4142945 8.7910156 5.5390625 C 8.6716585 5.6638305 8.5036051 5.7580875 8.3769531 5.8105469 C 7.5868027 6.1387142 6.9838312 6.5255295 6.578125 7.0605469 C 6.1724188 7.5955643 6 8.2551823 6 9 L 6 9.5 A 0.50005 0.50005 0 0 0 6.5 10 L 8.5 10 A 0.50005 0.50005 0 0 0 9 9.5 L 9 9 C 9 8.911152 9.0038194 8.8691657 9.0058594 8.8476562 C 9.0083694 8.8484603 9.140631 8.7431475 9.5253906 8.5839844 A 0.50005 0.50005 0 0 0 9.5253906 8.5820312 C 10.997425 7.9714809 11.951151 6.6584933 11.998047 5.1269531 C 12.057842 3.1652249 10.630633 1.3931399 8.7089844 1.0605469 A 0.50005 0.50005 0 0 0 8.7070312 1.0605469 C 8.4099375 1.0097616 8.1124377 0.99113682 7.8203125 1.0039062 z M 7.8613281 2.0019531 C 8.0816758 1.9932626 8.307894 2.0078322 8.5371094 2.046875 C 9.943461 2.290282 11.042252 3.6454313 10.998047 5.0957031 C 10.962947 6.2421629 10.298543 7.1787504 9.1425781 7.6582031 C 8.7060257 7.8387914 8.4365133 7.9572554 8.2207031 8.2167969 C 8.112798 8.3465676 8.043561 8.5146479 8.0195312 8.6523438 C 7.9955016 8.7900395 8 8.8975 8 9 L 7 9 C 7 8.3988177 7.1187062 8.0039982 7.375 7.6660156 C 7.6312938 7.328033 8.0619161 7.0242077 8.7597656 6.734375 C 8.9711136 6.6468344 9.258029 6.4977008 9.5136719 6.2304688 C 9.7693147 5.9632367 9.9832838 5.5596885 9.9980469 5.0644531 C 10.027981 4.0820533 9.3330774 3.1981655 8.3691406 3.03125 A 0.50005 0.50005 0 0 0 8.3671875 3.03125 C 7.7727099 2.93047 7.1689537 3.0858661 6.7128906 3.46875 C 6.4073066 3.7250463 6.3420006 4.126359 6.2324219 4.5 L 5.109375 4.5 C 5.2292299 3.810014 5.5217244 3.162905 6.0683594 2.703125 C 6.5874842 2.2662058 7.200285 2.0280246 7.8613281 2.0019531 z M 6.5 11 A 0.50005 0.50005 0 0 0 6 11.5 L 6 13.5 A 0.50005 0.50005 0 0 0 6.5 14 L 8.5 14 A 0.50005 0.50005 0 0 0 9 13.5 L 9 11.5 A 0.50005 0.50005 0 0 0 8.5 11 L 6.5 11 z M 7 12 L 8 12 L 8 13 L 7 13 L 7 12 z" font-weight="400" font-family="sans-serif" white-space="normal" overflow="visible"/>
</svg>
